<?xml version="1.0" encoding="UTF-8" standalone="no"?>
<!DOCTYPE svg PUBLIC "-//W3C//DTD SVG 1.1//EN" "http://www.w3.org/Graphics/SVG/1.1/DTD/svg11.dtd">
<svg width="100%" height="100%" viewBox="0 0 478 478" version="1.1" xmlns="http://www.w3.org/2000/svg" xmlns:xlink="http://www.w3.org/1999/xlink" xml:space="preserve" xmlns:serif="http://www.serif.com/" style="fill-rule:evenodd;clip-rule:evenodd;stroke-linejoin:round;stroke-miterlimit:2;">
    <g transform="matrix(1,0,0,1,-1354.1,0)">
        <g transform="matrix(1,0,0,1,1354.1,0)">
            <rect x="0" y="0" width="477.867" height="477.867" style="fill:none;"/>
        </g>
        <g transform="matrix(1,0,0,1.07337,0,-33.9207)">
            <path d="M1831.97,109.874C1831.97,92.35 1816.72,78.144 1797.91,78.144L1388.16,78.144C1369.35,78.144 1354.1,92.35 1354.1,109.874L1354.1,335.203C1354.1,352.727 1369.35,366.933 1388.16,366.933L1797.91,366.933C1816.72,366.933 1831.97,352.727 1831.97,335.203L1831.97,109.874ZM1798.97,109.874C1798.97,109.33 1798.5,108.889 1797.91,108.889L1388.16,108.889C1387.58,108.889 1387.1,109.33 1387.1,109.874L1387.1,335.203C1387.1,335.747 1387.58,336.189 1388.16,336.189L1797.91,336.189C1798.5,336.189 1798.97,335.747 1798.97,335.203L1798.97,109.874Z"/>
        </g>
        <g transform="matrix(1,0,0,1,8.36,-15)">
            <path d="M1473.79,454.14L1695.55,454.14C1704.66,454.14 1712.05,446.747 1712.05,437.64C1712.05,428.533 1704.66,421.14 1695.55,421.14L1473.79,421.14C1464.68,421.14 1457.29,428.533 1457.29,437.64C1457.29,446.747 1464.68,454.14 1473.79,454.14Z"/>
        </g>
        <g transform="matrix(2.2952e-17,0.374835,-1,6.12323e-17,1985.13,-209.918)">
            <path d="M1473.79,454.14L1695.55,454.14C1704.66,454.14 1712.05,446.747 1712.05,437.64C1712.05,428.533 1704.66,421.14 1695.55,421.14L1473.79,421.14C1464.68,421.14 1457.29,428.533 1457.29,437.64C1457.29,446.747 1464.68,454.14 1473.79,454.14Z"/>
        </g>
        <g transform="matrix(2.2952e-17,0.374835,-1,6.12323e-17,2076.04,-209.918)">
            <path d="M1473.79,454.14L1695.55,454.14C1704.66,454.14 1712.05,446.747 1712.05,437.64C1712.05,428.533 1704.66,421.14 1695.55,421.14L1473.79,421.14C1464.68,421.14 1457.29,428.533 1457.29,437.64C1457.29,446.747 1464.68,454.14 1473.79,454.14Z"/>
        </g>
        <g transform="matrix(1,0,0,1,0,-7)">
            <path d="M1375.99,306.195L1812.22,306.195C1821.33,306.195 1828.72,298.802 1828.72,289.695C1828.72,280.588 1821.33,273.195 1812.22,273.195L1375.99,273.195C1366.88,273.195 1359.49,280.588 1359.49,289.695C1359.49,298.802 1366.88,306.195 1375.99,306.195Z"/>
        </g>
    </g>
</svg>
