<?xml version="1.0" encoding="UTF-8" standalone="no"?>
<!DOCTYPE svg PUBLIC "-//W3C//DTD SVG 1.1//EN" "http://www.w3.org/Graphics/SVG/1.1/DTD/svg11.dtd">
<svg class="icon-book" width="100%" height="100%" viewBox="0 0 478 478" version="1.1" xmlns="http://www.w3.org/2000/svg" xmlns:xlink="http://www.w3.org/1999/xlink" xml:space="preserve" xmlns:serif="http://www.serif.com/" style="fill-rule:evenodd;clip-rule:evenodd;stroke-linejoin:round;stroke-miterlimit:2;">
    <g transform="matrix(1,0,0,1,-746.27,0)">
        <g id="book" transform="matrix(1,0,0,1,746.27,0)">
            <rect x="0" y="0" width="477.867" height="477.867" style="fill:none;"/>
            <clipPath id="_clip1">
                <rect x="0" y="0" width="477.867" height="477.867"/>
            </clipPath>
            <g clip-path="url(#_clip1)">
                <g transform="matrix(1.07692,0,0,0.885123,1.88354e-05,39.9185)">
                    <path d="M436.139,54.036C371.791,11.007 288.455,8.744 221.867,48.216C155.278,8.744 71.942,11.007 7.595,54.036C2.849,57.202 -0.001,62.531 0,68.236L0,406.446C-0.009,412.748 3.456,418.541 9.011,421.516C14.563,424.487 21.301,424.159 26.538,420.663C82.776,383.032 156.156,383.032 212.394,420.663C212.616,420.817 212.872,420.851 213.094,420.987C213.316,421.124 213.555,421.362 213.811,421.516C214.407,421.771 215.017,421.993 215.637,422.182C216.257,422.464 216.896,422.703 217.548,422.899C218.491,423.117 219.45,423.26 220.415,423.326C220.91,423.326 221.371,423.531 221.866,423.531L222.293,423.531C222.866,423.489 223.435,423.415 224,423.309C224.864,423.222 225.72,423.068 226.56,422.848C227.141,422.658 227.711,422.436 228.267,422.182C228.796,421.96 229.359,421.841 229.871,421.568C230.11,421.431 230.298,421.227 230.537,421.073C230.776,420.919 231.049,420.868 231.288,420.715C287.526,383.084 360.906,383.084 417.144,420.715C424.966,425.975 435.57,423.898 440.83,416.076C442.743,413.231 443.755,409.876 443.734,406.447L443.734,68.236C443.734,62.531 440.884,57.202 436.139,54.036ZM204.8,377.279C150.735,351.93 88.198,351.93 34.133,377.279L34.133,77.656C86.731,46.406 152.202,46.406 204.8,77.656L204.8,377.279ZM409.6,377.279C355.535,351.93 292.998,351.93 238.933,377.279L238.933,77.656C291.53,46.406 357.002,46.406 409.6,77.656L409.6,377.279Z" style="fill-rule:nonzero;"/>
                </g>
            </g>
        </g>
    </g>
</svg>
