<?xml version="1.0" encoding="UTF-8" standalone="no"?>
<!DOCTYPE svg PUBLIC "-//W3C//DTD SVG 1.1//EN" "http://www.w3.org/Graphics/SVG/1.1/DTD/svg11.dtd">
<svg class="icon-printer" width="100%" height="100%" viewBox="0 0 478 478" version="1.1" xmlns="http://www.w3.org/2000/svg" xmlns:xlink="http://www.w3.org/1999/xlink" xml:space="preserve" xmlns:serif="http://www.serif.com/" style="fill-rule:evenodd;clip-rule:evenodd;stroke-linejoin:round;stroke-miterlimit:2;">
    <path d="M460.8,119.467L375.467,119.467L375.467,17.067C375.467,7.641 367.826,0 358.4,0L119.467,0C110.041,0 102.4,7.641 102.4,17.067L102.4,119.467L17.067,119.467C7.641,119.467 0,127.108 0,136.533L0,358.4C0,367.826 7.641,375.467 17.067,375.467L102.4,375.467L102.4,460.8C102.4,470.226 110.041,477.867 119.467,477.867L358.4,477.867C367.826,477.867 375.467,470.226 375.467,460.8L375.467,375.467L460.8,375.467C470.226,375.467 477.867,367.826 477.867,358.4L477.867,136.533C477.867,127.108 470.226,119.467 460.8,119.467ZM136.533,34.133L341.333,34.133L341.333,119.466L136.533,119.466L136.533,34.133ZM341.333,443.733L136.533,443.733L136.533,290.133L341.333,290.133L341.333,443.733ZM443.733,341.333L375.466,341.333L375.466,290.133L392.533,290.133C401.959,290.133 409.6,282.492 409.6,273.066C409.6,263.64 401.959,256 392.533,256L85.333,256C75.907,256 68.266,263.641 68.266,273.067C68.266,282.493 75.907,290.134 85.333,290.134L102.4,290.134L102.4,341.334L34.133,341.334L34.133,153.6L443.733,153.6L443.733,341.333Z" style="fill-rule:nonzero;"/>
    <path d="M409.6,187.733L392.533,187.733C383.107,187.733 375.466,195.374 375.466,204.8C375.466,214.226 383.107,221.867 392.533,221.867L409.6,221.867C419.026,221.867 426.667,214.226 426.667,204.8C426.667,195.374 419.026,187.733 409.6,187.733Z" style="fill-rule:nonzero;"/>
    <path d="M290.133,324.267L187.733,324.267C178.307,324.267 170.666,331.908 170.666,341.334C170.666,350.76 178.307,358.401 187.733,358.401L290.133,358.401C299.559,358.401 307.2,350.76 307.2,341.334C307.2,331.908 299.559,324.267 290.133,324.267Z" style="fill-rule:nonzero;"/>
    <path d="M290.133,375.467L187.733,375.467C178.307,375.467 170.666,383.108 170.666,392.534C170.666,401.96 178.307,409.601 187.733,409.601L290.133,409.601C299.559,409.601 307.2,401.96 307.2,392.534C307.2,383.108 299.559,375.467 290.133,375.467Z" style="fill-rule:nonzero;"/>
</svg>
